<?xml version="1.0" encoding="UTF-8" standalone="no"?>
<svg
   xmlns:dc="http://purl.org/dc/elements/1.1/"
   xmlns:cc="http://creativecommons.org/ns#"
   xmlns:rdf="http://www.w3.org/1999/02/22-rdf-syntax-ns#"
   xmlns:svg="http://www.w3.org/2000/svg"
   xmlns="http://www.w3.org/2000/svg"
   viewBox="0 0 875 168.63126"
   height="168.63126"
   width="875"
   xml:space="preserve"
   version="1.1"
   id="svg2"><metadata
     id="metadata8"><rdf:RDF><cc:Work
         rdf:about=""><dc:format>image/svg+xml</dc:format><dc:type
           rdf:resource="http://purl.org/dc/dcmitype/StillImage" /><dc:title></dc:title></cc:Work></rdf:RDF></metadata><defs
     id="defs6"><clipPath
       id="clipPath16"
       clipPathUnits="userSpaceOnUse"><path
         id="path18"
         d="m 0,134.905 700,0 L 700,0 0,0 0,134.905 Z" /></clipPath></defs><g
     transform="matrix(1.25,0,0,-1.25,0,168.63125)"
     id="g10"><g
       style="fill:#000000"
       id="g12"><g
         style="fill:#000000"
         clip-path="url(#clipPath16)"
         id="g14"><g
           style="fill:#000000"
           transform="translate(687.5513,24.8957)"
           id="g20"><path
             id="path22"
             style="fill:#000000;fill-opacity:1;fill-rule:evenodd;stroke:none"
             d="m 0,0 c 6.87,0 12.449,-5.578 12.449,-12.448 0,-6.87 -5.579,-12.448 -12.449,-12.448 -6.87,0 -12.447,5.578 -12.447,12.448 C -12.447,-5.578 -6.87,0 0,0" /></g><g
           style="fill:#000000"
           transform="translate(335.6297,2.1753)"
           id="g24"><path
             id="path26"
             style="fill:#000000;fill-opacity:1;fill-rule:evenodd;stroke:none"
             d="m 0,0 0,48.022 c 0.171,5.193 0,25.594 0,25.594 l -1.797,8.817 -15.75,0 L -17.547,0 0,0 Z" /></g><g
           style="fill:#000000"
           transform="translate(241.7974,43.8878)"
           id="g28"><path
             id="path30"
             style="fill:#000000;fill-opacity:1;fill-rule:evenodd;stroke:none"
             d="m 0,0 c 0,-7.818 2.283,-14.295 6.848,-19.431 4.566,-5.136 10.872,-7.704 18.917,-7.704 5.023,0 9.474,1.398 13.355,4.194 3.879,2.796 6.561,6.078 8.045,9.844 l 13.696,-8.817 c -3.594,-6.448 -8.474,-11.556 -14.636,-15.322 -6.164,-3.766 -13.269,-5.65 -21.315,-5.65 -11.356,0 -21.2,4.052 -29.532,12.156 -8.332,8.103 -12.526,18.346 -12.584,30.73 0.058,12.384 4.252,22.627 12.584,30.73 8.332,8.104 18.176,12.184 29.532,12.241 8.046,0 15.094,-1.912 21.143,-5.735 6.049,-3.823 10.928,-8.931 14.638,-15.322 L 46.994,13.182 c -1.54,3.881 -4.222,7.191 -8.046,9.93 -3.88,2.739 -8.275,4.109 -13.183,4.109 C 17.72,27.164 11.414,24.567 6.848,19.431 2.283,14.295 0,7.818 0,0" /></g><g
           style="fill:#000000"
           transform="translate(478.5701,84.1449)"
           id="g32"><path
             id="path34"
             style="fill:#000000;fill-opacity:1;fill-rule:evenodd;stroke:none"
             d="m 0,0 -17.377,0 22.855,-82.433 16.607,0 16.692,47.508 16.607,-47.508 16.692,0 L 94.845,0 77.468,0 63.344,-58.807 47.508,-12.326 29.96,-12.326 14.21,-58.807 0,0 Z" /></g><g
           style="fill:#000000"
           transform="translate(370.9706,42.8857)"
           id="g36"><path
             id="path38"
             style="fill:#000000;fill-opacity:1;fill-rule:evenodd;stroke:none"
             d="m 0,0 c 0.057,12.384 4.308,22.627 12.755,30.73 8.446,8.104 18.517,12.184 30.216,12.241 11.699,0 21.771,-4.052 30.217,-12.155 8.445,-8.046 12.669,-18.29 12.669,-30.73 0,-12.441 -4.224,-22.713 -12.669,-30.816 -8.446,-8.104 -18.518,-12.156 -30.217,-12.156 -11.699,0 -21.77,4.052 -30.216,12.156 C 4.308,-22.627 0.057,-12.384 0,0 m 17.548,0 c 0,-7.818 2.226,-14.295 6.677,-19.431 4.451,-5.136 10.699,-7.704 18.746,-7.704 8.047,0 14.296,2.568 18.747,7.704 4.451,5.136 6.676,11.613 6.676,19.431 0,7.818 -2.225,14.295 -6.676,19.431 -4.451,5.136 -10.7,7.733 -18.747,7.79 C 34.924,27.164 28.676,24.567 24.225,19.431 19.774,14.295 17.548,7.818 17.548,0" /></g><g
           style="fill:#000000"
           transform="translate(662.7808,134.9053)"
           id="g40"><path
             id="path42"
             style="fill:#000000;fill-opacity:1;fill-rule:evenodd;stroke:none"
             d="m 0,0 0,-133.193 -15.75,0 -1.712,7.019 -0.942,0.856 c -6.391,-6.392 -14.266,-9.587 -23.625,-9.587 -11.699,0 -21.628,4.023 -29.789,12.069 -8.16,8.047 -12.27,18.319 -12.326,30.816 -0.058,12.498 4.023,22.799 12.241,30.902 8.217,8.103 17.718,12.127 28.505,12.07 10.785,0 19.117,-3.225 24.994,-9.673 l 0.942,0.941 0,57.78 L 0,0 Z m -15.75,-92.02 c 0,7.59 -2.397,14.01 -7.19,19.26 -4.794,5.251 -11.042,7.904 -18.747,7.961 -7.704,0 -13.81,-2.568 -18.318,-7.704 -4.508,-5.079 -6.762,-11.556 -6.762,-19.431 0,-7.875 2.254,-14.381 6.762,-19.517 4.508,-5.136 10.614,-7.704 18.318,-7.704 7.705,0 13.953,2.625 18.747,7.875 4.793,5.25 7.19,11.67 7.19,19.26" /></g><g
           style="fill:#000000"
           transform="translate(354.532,89.1545)"
           id="g44"><path
             id="path46"
             style="fill:#000000;fill-opacity:1;fill-rule:evenodd;stroke:none"
             d="m 0,0 c 6.87,0 12.447,-5.578 12.447,-12.448 0,-6.87 -5.577,-12.448 -12.447,-12.448 -6.87,0 -12.449,5.578 -12.449,12.448 C -12.449,-5.578 -6.87,0 0,0" /></g><g
           style="fill:#000000"
           transform="translate(189.4407,119.8452)"
           id="g48"><path
             id="path50"
             style="fill:#000000;fill-opacity:1;fill-rule:evenodd;stroke:none"
             d="m 0,0 -3.339,0 -13.867,-17.548 0,-17.462 -16.007,0 0,-15.836 16.007,0 0,-42.03 c 0.058,-7.932 2.369,-14.01 6.934,-18.233 4.566,-4.222 11.242,-6.334 20.031,-6.334 l 9.672,1.712 0,15.836 -10.529,-1.798 c -2.739,0 -4.907,0.828 -6.505,2.483 C 0.799,-97.555 0,-95.444 0,-92.876 L 0,0 Z" /></g><g
           style="fill:#000000"
           transform="translate(112.6101,84.8352)"
           id="g52"><path
             id="path54"
             style="fill:#000000;fill-opacity:1;fill-rule:evenodd;stroke:none"
             d="m 0,0 -15.75,0 0,-82.433 17.548,0 0,48.022 c 0.171,5.193 0,25.594 0,25.594 L 0,0 Z" /></g><g
           style="fill:#000000"
           transform="translate(84.1455,84.1449)"
           id="g56"><path
             id="path58"
             style="fill:#000000;fill-opacity:1;fill-rule:evenodd;stroke:none"
             d="m 0,0 0,-82.433 -15.75,0 -1.712,7.019 -0.942,0.856 c -6.392,-6.391 -14.267,-9.587 -23.626,-9.587 -11.698,0 -21.628,4.023 -29.789,12.07 -8.16,8.046 -12.269,18.318 -12.326,30.816 -0.057,12.497 4.023,22.798 12.241,30.901 8.217,8.104 17.719,12.127 28.505,12.07 10.785,0 19.117,-3.224 24.995,-9.673 l 0.942,0.942 L -15.75,0 0,0 Z m -15.75,-41.259 c 0,7.59 -2.397,14.01 -7.191,19.26 -4.793,5.25 -11.042,7.903 -18.746,7.961 -7.704,0 -13.81,-2.568 -18.319,-7.704 -4.508,-5.079 -6.762,-11.556 -6.762,-19.432 0,-7.875 2.254,-14.381 6.762,-19.516 4.509,-5.137 10.615,-7.705 18.319,-7.705 7.704,0 13.953,2.626 18.746,7.876 4.794,5.25 7.191,11.67 7.191,19.26" /></g><g
           style="fill:#000000"
           transform="translate(207.754,88.7838)"
           id="g60"><path
             id="path62"
             style="fill:#000000;fill-opacity:1;fill-rule:evenodd;stroke:none"
             d="m 0,0 c 6.87,0 12.449,-5.578 12.449,-12.448 0,-6.87 -5.579,-12.448 -12.449,-12.448 -6.87,0 -12.447,5.578 -12.447,12.448 C -12.447,-5.578 -6.87,0 0,0" /></g><g
           style="fill:#000000"
           transform="translate(133.3086,88.7838)"
           id="g64"><path
             id="path66"
             style="fill:#000000;fill-opacity:1;fill-rule:evenodd;stroke:none"
             d="m 0,0 c 6.87,0 12.449,-5.578 12.449,-12.448 0,-6.87 -5.579,-12.448 -12.449,-12.448 -6.87,0 -12.447,5.578 -12.447,12.448 C -12.447,-5.578 -6.87,0 0,0" /></g></g></g></g></svg>