<?xml version="1.0" encoding="UTF-8" standalone="no"?>
<svg
   xmlns:dc="http://purl.org/dc/elements/1.1/"
   xmlns:cc="http://creativecommons.org/ns#"
   xmlns:rdf="http://www.w3.org/1999/02/22-rdf-syntax-ns#"
   xmlns:svg="http://www.w3.org/2000/svg"
   xmlns="http://www.w3.org/2000/svg"
   viewBox="0 0 42 38"
   height="38"
   width="42"
   xml:space="preserve"
   version="1.1"
   id="svg2"><metadata
     id="metadata8"><rdf:RDF><cc:Work
         rdf:about=""><dc:format>image/svg+xml</dc:format><dc:type
           rdf:resource="http://purl.org/dc/dcmitype/StillImage" /><dc:title></dc:title></cc:Work></rdf:RDF></metadata><defs
     id="defs6"><clipPath
       id="clipPath16"
       clipPathUnits="userSpaceOnUse"><path
         id="path18"
         d="M 0,125 64,125 64,0 0,0 0,125 Z" /></clipPath></defs><g
     transform="matrix(1.25,0,0,-1.25,0,38)"
     id="g10"><g
       style="fill:#ffffff;fill-opacity:1;stroke:#bcbdc0;stroke-opacity:1"
       transform="matrix(0.81591285,0,0,0.76631256,0.40795645,-28.637484)"
       id="g24"><path
         id="path26"
         style="fill:#ffffff;stroke:#bcbdc0;stroke-width:1;stroke-linecap:butt;stroke-linejoin:miter;stroke-miterlimit:10;stroke-dasharray:none;stroke-opacity:1;fill-opacity:1"
         d="m 40.182,37.3705 0,37.3705 c 0,0.994 -0.806,1.8 -1.8,1.8 l -36.582,0 C 0.806,76.541 0,75.735 0,74.741 L 0,37.3705" /></g><g
       transform="matrix(0.81591285,0,0,0.76631256,16.800298,20.829294)"
       id="g28"><path
         id="path30"
         style="fill:#ffffff;fill-opacity:1;fill-rule:nonzero;stroke:#231f20;stroke-width:2;stroke-linecap:butt;stroke-linejoin:miter;stroke-miterlimit:10;stroke-dasharray:none;stroke-opacity:1"
         d="M 0,0 0,-14.898" /></g><g
       transform="matrix(0.81591285,0,0,0.76631256,10.829203,15.121262)"
       id="g32"><path
         id="path34"
         style="fill:#ffffff;fill-opacity:1;fill-rule:nonzero;stroke:#231f20;stroke-width:2;stroke-linecap:butt;stroke-linejoin:miter;stroke-miterlimit:10;stroke-dasharray:none;stroke-opacity:1"
         d="M 0,0 14.637,0" /></g></g></svg>