<?xml version="1.0" encoding="UTF-8" standalone="no"?>
<svg
   xmlns:dc="http://purl.org/dc/elements/1.1/"
   xmlns:cc="http://creativecommons.org/ns#"
   xmlns:rdf="http://www.w3.org/1999/02/22-rdf-syntax-ns#"
   xmlns:svg="http://www.w3.org/2000/svg"
   xmlns="http://www.w3.org/2000/svg"
   viewBox="0 0 625 316.79749"
   height="316.79749"
   width="625"
   xml:space="preserve"
   version="1.1"
   id="svg2"><metadata
     id="metadata8"><rdf:RDF><cc:Work
         rdf:about=""><dc:format>image/svg+xml</dc:format><dc:type
           rdf:resource="http://purl.org/dc/dcmitype/StillImage" /><dc:title></dc:title></cc:Work></rdf:RDF></metadata><defs
     id="defs6"><clipPath
       id="clipPath16"
       clipPathUnits="userSpaceOnUse"><path
         id="path18"
         d="m 0,253.438 500,0 L 500,0 0,0 0,253.438 Z" /></clipPath></defs><g
     transform="matrix(1.25,0,0,-1.25,0,316.7975)"
     id="g10"><g
       style="fill:#ffffff"
       id="g12"><g
         style="fill:#ffffff"
         clip-path="url(#clipPath16)"
         id="g14"><g
           style="fill:#ffffff"
           transform="translate(63.9126,153.1415)"
           id="g20"><path
             id="path22"
             style="fill:#ffffff;fill-opacity:1;fill-rule:nonzero;stroke:none"
             d="m 0,0 c -5.006,-5.482 -11.531,-8.223 -19.576,-8.223 -8.045,0 -14.421,2.681 -19.129,8.044 -4.707,5.364 -7.061,12.158 -7.061,20.381 0,8.223 2.354,14.988 7.061,20.292 4.708,5.363 11.084,8.044 19.129,8.044 C -11.531,48.479 -5.006,45.708 0,40.224 5.006,34.742 7.509,28.038 7.509,20.113 7.509,12.187 5.006,5.484 0,0 M 5.72,55.917 4.738,54.884 c -6.138,6.734 -14.839,10.1 -26.101,10.1 -11.263,0.061 -21.185,-4.141 -29.767,-12.602 -8.581,-8.463 -12.842,-19.219 -12.782,-32.27 0.059,-13.05 4.35,-23.777 12.872,-32.18 8.521,-8.402 18.89,-12.605 31.107,-12.605 9.772,0 17.997,3.335 24.671,10.009 l 0.982,-0.8 1.789,-7.24 16.321,0 0,86 -16.321,0 -1.789,-7.379 z" /></g><g
           style="fill:#ffffff"
           transform="translate(62.3749,21.928)"
           id="g24"><path
             id="path26"
             style="fill:#ffffff;fill-opacity:1;fill-rule:nonzero;stroke:none"
             d="m 0,0 c -4.054,-2.921 -8.701,-4.381 -13.945,-4.381 -8.403,0 -14.987,2.682 -19.755,8.045 -4.767,5.364 -7.151,12.128 -7.151,20.291 0,8.164 2.384,14.929 7.151,20.292 4.768,5.363 11.352,8.074 19.755,8.134 5.125,0 9.713,-1.43 13.765,-4.291 3.994,-2.861 6.795,-6.316 8.403,-10.369 l 14.302,9.118 c -3.873,6.674 -8.969,12.007 -15.285,16 -6.317,3.992 -13.676,5.989 -22.079,5.989 -11.859,-0.059 -22.138,-4.321 -30.839,-12.782 -8.7,-8.463 -13.08,-19.159 -13.14,-32.091 0.06,-12.931 4.44,-23.628 13.14,-32.09 8.701,-8.462 18.98,-12.692 30.839,-12.692 8.403,0 15.821,1.966 22.257,5.899 6.436,3.933 11.531,9.266 15.286,16 L 8.402,10.278 C 6.853,6.345 4.052,2.92 0,0" /></g><g
           style="fill:#ffffff"
           transform="translate(216.9469,195.1858)"
           id="g28"><path
             id="path30"
             style="fill:#ffffff;fill-opacity:1;fill-rule:nonzero;stroke:none"
             d="m 0,0 c 7.173,0 12.998,5.825 12.998,12.999 0,7.173 -5.825,12.998 -12.998,12.998 -7.174,0 -12.999,-5.825 -12.999,-12.998 C -12.999,5.825 -7.174,0 0,0" /></g><g
           style="fill:#ffffff"
           transform="translate(117.6311,87.4378)"
           id="g32"><path
             id="path34"
             style="fill:#ffffff;fill-opacity:1;fill-rule:nonzero;stroke:none"
             d="m 0,0 -16.888,0 0,-86 18,0 0,49.808 c 1,5.423 0.383,26.857 0.383,26.857 L 0,0 Z" /></g><g
           style="fill:#ffffff"
           transform="translate(179.7426,156.6338)"
           id="g36"><path
             id="path38"
             style="fill:#ffffff;fill-opacity:1;fill-rule:nonzero;stroke:none"
             d="m 0,0 c 0,-8.283 2.624,-14.629 7.392,-19.04 4.768,-4.409 12.036,-6.614 21.213,-6.614 L 39,-23.866 39,-7.33 27.65,-9.207 c -2.861,0 -5.376,0.865 -7.046,2.592 C 18.936,-4.887 18,-2.682 18,0 l 0,96.804 -3.406,0 L 0,78.661 0,60.804 l -16,0 0,-17 16,0 L 0,0 Z" /></g><g
           style="fill:#ffffff"
           transform="translate(139.208,195.1858)"
           id="g40"><path
             id="path42"
             style="fill:#ffffff;fill-opacity:1;fill-rule:nonzero;stroke:none"
             d="m 0,0 c 7.173,0 12.998,5.825 12.998,12.999 0,7.173 -5.825,12.998 -12.998,12.998 -7.174,0 -12.999,-5.825 -12.999,-12.998 C -12.999,5.825 -7.174,0 0,0" /></g><g
           style="fill:#ffffff"
           transform="translate(118.7426,181.1261)"
           id="g44"><path
             id="path46"
             style="fill:#ffffff;fill-opacity:1;fill-rule:nonzero;stroke:none"
             d="m 0,0 c 1,5.423 0.363,26.916 0.363,26.916 l -1.513,9.396 -16.85,0 0,-86 18,0 L 0,0 Z" /></g><g
           style="fill:#ffffff"
           transform="translate(139.2463,91.9284)"
           id="g48"><path
             id="path50"
             style="fill:#ffffff;fill-opacity:1;fill-rule:nonzero;stroke:none"
             d="m 0,0 c -7.174,0 -12.998,-5.825 -12.998,-12.999 0,-7.175 5.824,-12.998 12.998,-12.998 7.174,0 12.998,5.823 12.998,12.998 C 12.998,-5.825 7.174,0 0,0" /></g><g
           style="fill:#ffffff"
           transform="translate(334.9187,26.4651)"
           id="g52"><path
             id="path54"
             style="fill:#ffffff;fill-opacity:1;fill-rule:nonzero;stroke:none"
             d="m 0,0 -16.536,48.973 -18.324,0 L -51.308,0 l -14.839,60.973 -18.144,0 23.866,-86 17.34,0 17.432,49.609 17.34,-49.609 17.43,0 23.778,86 -18.145,0 L 0,0 Z" /></g><g
           style="fill:#ffffff"
           transform="translate(487.0005,26.051)"
           id="g56"><path
             id="path58"
             style="fill:#ffffff;fill-opacity:1;fill-rule:nonzero;stroke:none"
             d="m 0,0 c -7.174,0 -12.998,-5.825 -12.998,-12.998 0,-7.174 5.824,-13 12.998,-13 7.174,0 12.999,5.826 12.999,13 C 12.999,-5.825 7.174,0 0,0" /></g><g
           style="fill:#ffffff"
           transform="translate(437.1783,24.7243)"
           id="g60"><path
             id="path62"
             style="fill:#ffffff;fill-opacity:1;fill-rule:nonzero;stroke:none"
             d="m 0,0 c -5.006,-5.482 -11.531,-8.223 -19.576,-8.223 -8.044,0 -14.421,2.681 -19.129,8.044 -4.707,5.364 -7.061,12.157 -7.061,20.381 0,8.223 2.354,14.987 7.061,20.29 4.708,5.365 11.085,8.046 19.129,8.046 C -11.531,48.479 -5.006,45.707 0,40.224 5.006,34.742 7.509,28.038 7.509,20.113 7.509,12.187 5.006,5.482 0,0 M 5.564,55.867 4.659,54.882 C -1.479,61.617 -10.164,64.981 -21.426,64.981 -32.689,65.041 -42.58,60.837 -51.161,52.375 -59.742,43.913 -63.987,33.15 -63.927,20.1 c 0.059,-13.051 4.357,-23.792 12.879,-32.194 8.522,-8.403 18.894,-12.63 31.111,-12.63 9.772,0 17.999,3.284 24.673,9.958 l 0.985,-0.99 1.788,-7.53 16.055,0 0,139 -18,0 0,-59.847 z" /></g><g
           style="fill:#ffffff"
           transform="translate(220.8615,24.5457)"
           id="g64"><path
             id="path66"
             style="fill:#ffffff;fill-opacity:1;fill-rule:nonzero;stroke:none"
             d="m 0,0 c -4.649,-5.363 -11.174,-8.045 -19.577,-8.045 -8.402,0 -14.927,2.682 -19.576,8.045 -4.647,5.363 -6.972,12.126 -6.972,20.292 0,8.163 2.325,14.927 6.972,20.29 4.649,5.363 11.174,8.075 19.576,8.135 C -11.174,48.657 -4.649,45.945 0,40.582 4.647,35.219 6.972,28.455 6.972,20.292 6.972,12.126 4.647,5.363 0,0 m -19.577,65.163 c -12.216,-0.059 -22.734,-4.32 -31.553,-12.782 -8.82,-8.462 -13.259,-19.158 -13.319,-32.089 0.06,-12.932 4.499,-23.63 13.319,-32.091 8.819,-8.463 19.337,-12.693 31.553,-12.693 12.217,0 22.735,4.23 31.555,12.693 8.819,8.461 13.229,19.189 13.229,32.18 0,12.991 -4.41,23.687 -13.229,32.089 -8.82,8.463 -19.338,12.693 -31.555,12.693" /></g></g></g></g></svg>