<?xml version="1.0" encoding="UTF-8" standalone="no"?>
<svg
   xmlns:dc="http://purl.org/dc/elements/1.1/"
   xmlns:cc="http://creativecommons.org/ns#"
   xmlns:rdf="http://www.w3.org/1999/02/22-rdf-syntax-ns#"
   xmlns:svg="http://www.w3.org/2000/svg"
   xmlns="http://www.w3.org/2000/svg"
   viewBox="0 0 82 82"
   height="82"
   width="82"
   xml:space="preserve"
   version="1.1"
   id="svg2"><metadata
     id="metadata8"><rdf:RDF><cc:Work
         rdf:about=""><dc:format>image/svg+xml</dc:format><dc:type
           rdf:resource="http://purl.org/dc/dcmitype/StillImage" /><dc:title></dc:title></cc:Work></rdf:RDF></metadata><defs
     id="defs6"><clipPath
       id="clipPath16"
       clipPathUnits="userSpaceOnUse"><path
         id="path18"
         d="M 0,700 700,700 700,0 0,0 0,700 Z" /></clipPath></defs><g
     transform="matrix(1.25,0,0,-1.25,0,82)"
     id="g10"><g
       transform="matrix(0.09371434,0,0,0.09371435,0,-4.6857175e-5)"
       id="g12"><g
         clip-path="url(#clipPath16)"
         id="g14"><g
           transform="translate(656.0905,339.3947)"
           id="g20"><path
             id="path22"
             style="fill:#ffffff;fill-opacity:1;fill-rule:evenodd;stroke:none"
             d="m 0,0 c 0,-168.154 -136.316,-304.469 -304.469,-304.469 -168.154,0 -304.47,136.315 -304.47,304.469 0,168.154 136.316,304.469 304.47,304.469 C -136.316,304.469 0,168.154 0,0" /></g><g
           transform="translate(133.8411,428.8622)"
           id="g24"><path
             id="path26"
             style="fill:#ff3800;fill-opacity:1;fill-rule:evenodd;stroke:none"
             d="m 0,0 c -8.493,0 -15.224,-2.831 -20.194,-8.493 -4.97,-5.598 -7.455,-12.74 -7.455,-21.421 0,-8.681 2.485,-15.854 7.455,-21.516 4.97,-5.662 11.701,-8.493 20.194,-8.493 8.493,0 15.381,2.894 20.666,8.681 5.285,5.789 7.927,12.867 7.927,21.234 0,8.367 -2.642,15.444 -7.927,21.231 C 15.381,-2.988 8.493,-0.063 0,0" /></g><g
           transform="translate(527.8955,293.2929)"
           id="g28"><path
             id="path30"
             style="fill:#ff3800;fill-opacity:1;fill-rule:evenodd;stroke:none"
             d="m 0,0 c -8.493,0 -15.224,-2.831 -20.195,-8.494 -4.969,-5.599 -7.454,-12.739 -7.454,-21.42 0,-8.683 2.485,-15.854 7.454,-21.516 4.971,-5.662 11.702,-8.493 20.195,-8.493 8.493,0 15.381,2.894 20.666,8.681 5.285,5.788 7.927,12.867 7.927,21.234 0,8.367 -2.642,15.444 -7.927,21.231 C 15.381,-2.989 8.493,-0.063 0,0" /></g><g
           transform="translate(299.5297,293.2929)"
           id="g32"><path
             id="path34"
             style="fill:#ff3800;fill-opacity:1;fill-rule:evenodd;stroke:none"
             d="m 0,0 c -8.87,-0.063 -15.758,-2.927 -20.666,-8.588 -4.906,-5.662 -7.36,-12.802 -7.36,-21.42 0,-8.62 2.454,-15.76 7.36,-21.422 4.908,-5.662 11.796,-8.493 20.666,-8.493 8.871,0 15.76,2.831 20.668,8.493 4.906,5.662 7.359,12.802 7.359,21.422 0,8.618 -2.453,15.758 -7.359,21.42 C 15.76,-2.927 8.871,-0.063 0,0" /></g><g
           transform="translate(601.1586,216.0065)"
           id="g36"><path
             id="path38"
             style="fill:#ff3800;fill-opacity:1;fill-rule:evenodd;stroke:none"
             d="m 0,0 c -7.574,0 -13.722,6.15 -13.722,13.723 0,7.573 6.148,13.722 13.722,13.722 7.574,0 13.724,-6.149 13.724,-13.722 C 13.724,6.15 7.574,0 0,0 m -28.159,1.994 -16.511,0 -1.89,7.684 -1.041,0.779 c -7.046,-7.046 -15.734,-10.513 -26.05,-10.513 -12.898,0 -23.854,4.463 -32.85,13.334 -8.997,8.869 -13.548,20.209 -13.611,33.986 -0.063,13.777 4.391,25.139 13.451,34.073 9.058,8.933 19.445,13.371 31.336,13.308 11.889,0 20.949,-3.552 27.429,-10.662 l 0.737,1.04 0,62.971 19,0 0,-146 z m -122.768,0 -18.4,0 -18.307,52.372 -18.402,-52.372 -18.306,0 -25.196,91 19.155,0 15.666,-65.035 17.364,51.035 19.344,0 17.457,-51.035 15.571,65.035 19.157,0 -25.103,-91 z M -268.317,13.4 C -277.628,4.466 -288.731,0 -301.629,0 c -12.896,0 -24,4.466 -33.31,13.4 -9.312,8.933 -13.998,20.226 -14.061,33.878 0.063,13.652 4.749,24.944 14.061,33.876 9.31,8.934 20.414,13.432 33.31,13.495 12.898,0 24.001,-4.466 33.312,-13.4 9.311,-8.87 13.966,-20.162 13.966,-33.877 0,-13.714 -4.655,-25.039 -13.966,-33.972 m -98.805,56.147 c -7.574,0 -13.722,6.147 -13.722,13.721 0,7.574 6.148,13.724 13.722,13.724 7.574,0 13.722,-6.15 13.722,-13.724 0,-7.574 -6.148,-13.721 -13.722,-13.721 m -0.04,163.898 c 7.572,0 13.722,-6.149 13.722,-13.721 0,-7.574 -6.15,-13.724 -13.722,-13.724 -7.574,0 -13.724,6.15 -13.724,13.724 0,7.572 6.15,13.721 13.724,13.721 m -21.997,-179.401 0,-52.05 -19,0 0,91 18.218,0 1.382,-10.227 c 0,0 0.4,-22.998 -0.6,-28.723 m -32,83.95 -17.565,0 -1.889,7.468 -1.036,0.67 c -7.046,-7.046 -15.729,-10.569 -26.045,-10.569 -12.898,0 -23.844,4.434 -32.84,13.304 -8.996,8.871 -13.526,20.189 -13.589,33.966 -0.063,13.777 4.435,25.118 13.495,34.052 9.059,8.933 19.533,13.342 31.424,13.277 11.889,0 21.074,-3.608 27.555,-10.717 l 1.036,0.979 1.889,7.57 17.565,0 0,-90 z M -440.443,7.333 c -6.795,-4.152 -14.626,-6.227 -23.497,-6.227 -12.519,0 -23.371,4.466 -32.556,13.399 -9.185,8.934 -13.809,20.226 -13.872,33.877 0.063,13.652 4.687,24.944 13.872,33.878 9.185,8.933 20.037,13.432 32.556,13.495 8.871,0 16.639,-2.109 23.308,-6.324 6.669,-4.214 12.048,-9.845 16.137,-16.891 l -15.099,-9.625 c -1.698,4.278 -4.654,7.926 -8.871,10.947 -4.278,3.019 -9.121,4.529 -14.531,4.529 -8.871,-0.063 -15.822,-2.925 -20.855,-8.587 -5.033,-5.662 -7.55,-12.803 -7.55,-21.422 0,-8.618 2.517,-15.758 7.55,-21.421 5.033,-5.662 11.984,-8.493 20.855,-8.493 5.536,0 10.442,1.541 14.721,4.625 4.278,3.082 7.234,6.699 8.87,10.851 l 15.098,-9.72 c -3.963,-7.109 -9.342,-12.739 -16.136,-16.891 m 32.284,221.661 18.177,0 1.403,-9.67 c 0,0 0.42,-22.442 -0.58,-28.167 l 0,-52.163 -19,0 0,90 z m 67,0 17,0 0,19.349 15.196,19.651 3.804,0 0,-102.693 c 0,-2.831 1.144,-5.159 2.905,-6.983 1.762,-1.824 4.573,-2.737 7.594,-2.737 l 12.501,1.981 0,-17.456 -11.441,-1.888 c -9.688,0 -17.827,2.328 -22.86,6.983 -5.034,4.656 -7.699,11.356 -7.699,20.1 l 0,46.693 -17,0 0,17 z m 56.065,4.451 c 7.572,0 13.722,-6.149 13.722,-13.721 0,-7.574 -6.15,-13.724 -13.722,-13.724 -7.574,0 -13.723,6.15 -13.723,13.724 0,7.572 6.149,13.721 13.723,13.721 m 33.935,250.549 c -193.17,0 -350,-156.83 -350,-350 0,-193.17 156.83,-350 350,-350 193.17,0 350,156.83 350,350 0,193.17 -156.83,350 -350,350" /></g></g></g></g></svg>